<?xml version="1.0" encoding="UTF-8" standalone="no"?>
<!DOCTYPE svg PUBLIC "-//W3C//DTD SVG 1.1//EN"
 "http://www.w3.org/Graphics/SVG/1.1/DTD/svg11.dtd">
<!-- Generated by graphviz version 2.43.0 (0)
 -->
<!-- Title: DsaStep3CommAfter Pages: 1 -->
<svg width="2121pt" height="354pt"
 viewBox="0.00 0.00 2121.08 354.08" xmlns="http://www.w3.org/2000/svg" xmlns:xlink="http://www.w3.org/1999/xlink">
<g id="graph0" class="graph" transform="scale(1 1) rotate(0) translate(23.04 331.04)">
<title>DsaStep3CommAfter</title>
<polygon fill="#f8fafc" stroke="transparent" points="-23.04,23.04 -23.04,-331.04 2098.04,-331.04 2098.04,23.04 -23.04,23.04"/>
<text text-anchor="middle" x="1037.5" y="-288" font-family="DejaVu Sans" font-size="20.00">Magi_DSA Communication — AFTER Step 3</text>
<g id="clust1" class="cluster">
<title>cluster_payloads</title>
<path fill="#eff6ff" stroke="#93c5fd" d="M522,-8C522,-8 704,-8 704,-8 710,-8 716,-14 716,-20 716,-20 716,-258 716,-258 716,-264 710,-270 704,-270 704,-270 522,-270 522,-270 516,-270 510,-264 510,-258 510,-258 510,-20 510,-20 510,-14 516,-8 522,-8"/>
<text text-anchor="middle" x="613" y="-250" font-family="DejaVu Sans" font-size="20.00">Typed static routes</text>
</g>
<!-- plan -->
<g id="node1" class="node">
<title>plan</title>
<path fill="#ede9fe" stroke="#7c3aed" d="M194,-134C194,-134 12,-134 12,-134 6,-134 0,-128 0,-122 0,-122 0,-110 0,-110 0,-104 6,-98 12,-98 12,-98 194,-98 194,-98 200,-98 206,-104 206,-110 206,-110 206,-122 206,-122 206,-128 200,-134 194,-134"/>
<text text-anchor="middle" x="103" y="-119" font-family="DejaVu Sans" font-size="10.00">DsaDispatchPlan</text>
<text text-anchor="middle" x="103" y="-108" font-family="DejaVu Sans" font-size="10.00">fragments + owners + transfer tables</text>
</g>
<!-- comm_plan -->
<g id="node2" class="node">
<title>comm_plan</title>
<path fill="#dbeafe" stroke="#2563eb" stroke-width="2" d="M463,-134C463,-134 261,-134 261,-134 255,-134 249,-128 249,-122 249,-122 249,-110 249,-110 249,-104 255,-98 261,-98 261,-98 463,-98 463,-98 469,-98 475,-104 475,-110 475,-110 475,-122 475,-122 475,-128 469,-134 463,-134"/>
<text text-anchor="middle" x="362" y="-119" font-family="DejaVu Sans" font-size="10.00">DsaCommPlan</text>
<text text-anchor="middle" x="362" y="-108" font-family="DejaVu Sans" font-size="10.00">4 independent GroupCollectiveArg objects</text>
</g>
<!-- plan&#45;&gt;comm_plan -->
<g id="edge1" class="edge">
<title>plan&#45;&gt;comm_plan</title>
<path fill="none" stroke="#64748b" stroke-width="1.4" d="M206.31,-116C217.9,-116 229.79,-116 241.58,-116"/>
<polygon fill="#64748b" stroke="#64748b" stroke-width="1.4" points="241.7,-118.52 248.9,-116 241.7,-113.48 241.7,-118.52"/>
</g>
<!-- window -->
<g id="node3" class="node">
<title>window</title>
<path fill="#dbeafe" stroke="#2563eb" d="M696,-232C696,-232 530,-232 530,-232 524,-232 518,-226 518,-220 518,-220 518,-208 518,-208 518,-202 524,-196 530,-196 530,-196 696,-196 696,-196 702,-196 708,-202 708,-208 708,-208 708,-220 708,-220 708,-226 702,-232 696,-232"/>
<text text-anchor="middle" x="613" y="-217" font-family="DejaVu Sans" font-size="10.00">WINDOW_KV</text>
<text text-anchor="middle" x="613" y="-206" font-family="DejaVu Sans" font-size="10.00">transfer table → unique token rows</text>
</g>
<!-- comm_plan&#45;&gt;window -->
<g id="edge2" class="edge">
<title>comm_plan&#45;&gt;window</title>
<path fill="none" stroke="#64748b" stroke-width="1.4" d="M398.32,-134.13C427.71,-148.78 470.91,-169.3 510,-184 519.11,-187.42 528.79,-190.71 538.42,-193.77"/>
<polygon fill="#64748b" stroke="#64748b" stroke-width="1.4" points="537.79,-196.21 545.41,-195.96 539.29,-191.4 537.79,-196.21"/>
</g>
<!-- overlap -->
<g id="node4" class="node">
<title>overlap</title>
<path fill="#d1fae5" stroke="#059669" d="M696,-172C696,-172 530,-172 530,-172 524,-172 518,-166 518,-160 518,-160 518,-148 518,-148 518,-142 524,-136 530,-136 530,-136 696,-136 696,-136 702,-136 708,-142 708,-148 708,-148 708,-160 708,-160 708,-166 702,-172 696,-172"/>
<text text-anchor="middle" x="613" y="-157" font-family="DejaVu Sans" font-size="10.00">OVERLAP_X</text>
<text text-anchor="middle" x="613" y="-146" font-family="DejaVu Sans" font-size="10.00">transfer table → unique token rows</text>
</g>
<!-- comm_plan&#45;&gt;overlap -->
<g id="edge3" class="edge">
<title>comm_plan&#45;&gt;overlap</title>
<path fill="none" stroke="#64748b" stroke-width="1.4" d="M475.12,-133.11C486.98,-134.92 499,-136.75 510.73,-138.55"/>
<polygon fill="#64748b" stroke="#64748b" stroke-width="1.4" points="510.5,-141.06 518,-139.65 511.26,-136.08 510.5,-141.06"/>
</g>
<!-- ckv -->
<g id="node5" class="node">
<title>ckv</title>
<path fill="#fef3c7" stroke="#d97706" d="M680.5,-112C680.5,-112 545.5,-112 545.5,-112 539.5,-112 533.5,-106 533.5,-100 533.5,-100 533.5,-88 533.5,-88 533.5,-82 539.5,-76 545.5,-76 545.5,-76 680.5,-76 680.5,-76 686.5,-76 692.5,-82 692.5,-88 692.5,-88 692.5,-100 692.5,-100 692.5,-106 686.5,-112 680.5,-112"/>
<text text-anchor="middle" x="613" y="-97" font-family="DejaVu Sans" font-size="10.00">COMPRESSED_KV</text>
<text text-anchor="middle" x="613" y="-86" font-family="DejaVu Sans" font-size="10.00">owner rows → every CP peer</text>
</g>
<!-- comm_plan&#45;&gt;ckv -->
<g id="edge4" class="edge">
<title>comm_plan&#45;&gt;ckv</title>
<path fill="none" stroke="#64748b" stroke-width="1.4" d="M475.12,-106.09C492.13,-104.59 509.46,-103.06 525.81,-101.62"/>
<polygon fill="#64748b" stroke="#64748b" stroke-width="1.4" points="526.3,-104.1 533.25,-100.96 525.85,-99.08 526.3,-104.1"/>
</g>
<!-- cki -->
<g id="node6" class="node">
<title>cki</title>
<path fill="#fce7f3" stroke="#db2777" d="M680.5,-52C680.5,-52 545.5,-52 545.5,-52 539.5,-52 533.5,-46 533.5,-40 533.5,-40 533.5,-28 533.5,-28 533.5,-22 539.5,-16 545.5,-16 545.5,-16 680.5,-16 680.5,-16 686.5,-16 692.5,-22 692.5,-28 692.5,-28 692.5,-40 692.5,-40 692.5,-46 686.5,-52 680.5,-52"/>
<text text-anchor="middle" x="613" y="-37" font-family="DejaVu Sans" font-size="10.00">COMPRESSED_KI</text>
<text text-anchor="middle" x="613" y="-26" font-family="DejaVu Sans" font-size="10.00">owner rows → every CP peer</text>
</g>
<!-- comm_plan&#45;&gt;cki -->
<g id="edge5" class="edge">
<title>comm_plan&#45;&gt;cki</title>
<path fill="none" stroke="#64748b" stroke-width="1.4" d="M412.11,-97.88C440.57,-87.57 477.16,-74.63 510,-64 520.23,-60.69 531.08,-57.33 541.75,-54.12"/>
<polygon fill="#64748b" stroke="#64748b" stroke-width="1.4" points="542.54,-56.51 548.72,-52.03 541.1,-51.68 542.54,-56.51"/>
</g>
<!-- pack -->
<g id="node7" class="node">
<title>pack</title>
<path fill="#e0f2fe" stroke="#0284c7" d="M911,-145.5C911,-145.5 763,-145.5 763,-145.5 757,-145.5 751,-139.5 751,-133.5 751,-133.5 751,-112.5 751,-112.5 751,-106.5 757,-100.5 763,-100.5 763,-100.5 911,-100.5 911,-100.5 917,-100.5 923,-106.5 923,-112.5 923,-112.5 923,-133.5 923,-133.5 923,-139.5 917,-145.5 911,-145.5"/>
<text text-anchor="middle" x="837" y="-131.5" font-family="DejaVu Sans" font-size="10.00">Torch reference pack</text>
<text text-anchor="middle" x="837" y="-120.5" font-family="DejaVu Sans" font-size="10.00">unique owner&#45;local row indices</text>
<text text-anchor="middle" x="837" y="-109.5" font-family="DejaVu Sans" font-size="10.00">(Step 4 kernel seam)</text>
</g>
<!-- window&#45;&gt;pack -->
<g id="edge6" class="edge">
<title>window&#45;&gt;pack</title>
<path fill="none" stroke="#64748b" stroke-width="1.4" d="M681.81,-195.96C693.34,-192.35 705.11,-188.33 716,-184 741.11,-174.03 768,-160.62 789.96,-148.92"/>
<polygon fill="#64748b" stroke="#64748b" stroke-width="1.4" points="791.16,-151.14 796.31,-145.51 788.77,-146.7 791.16,-151.14"/>
</g>
<!-- overlap&#45;&gt;pack -->
<g id="edge7" class="edge">
<title>overlap&#45;&gt;pack</title>
<path fill="none" stroke="#64748b" stroke-width="1.4" d="M708.15,-140.85C719.89,-139.21 731.89,-137.54 743.61,-135.9"/>
<polygon fill="#64748b" stroke="#64748b" stroke-width="1.4" points="744.08,-138.38 750.86,-134.89 743.38,-133.39 744.08,-138.38"/>
</g>
<!-- ckv&#45;&gt;pack -->
<g id="edge8" class="edge">
<title>ckv&#45;&gt;pack</title>
<path fill="none" stroke="#64748b" stroke-width="1.4" d="M692.58,-104.27C709.06,-106.42 726.59,-108.71 743.52,-110.92"/>
<polygon fill="#64748b" stroke="#64748b" stroke-width="1.4" points="743.27,-113.43 750.74,-111.86 743.92,-108.43 743.27,-113.43"/>
</g>
<!-- cki&#45;&gt;pack -->
<g id="edge9" class="edge">
<title>cki&#45;&gt;pack</title>
<path fill="none" stroke="#64748b" stroke-width="1.4" d="M681.49,-52.08C693.11,-55.69 704.99,-59.71 716,-64 740.31,-73.47 766.4,-86 788.02,-97.07"/>
<polygon fill="#64748b" stroke="#64748b" stroke-width="1.4" points="787.03,-99.39 794.58,-100.45 789.34,-94.91 787.03,-99.39"/>
</g>
<!-- cast -->
<g id="node8" class="node">
<title>cast</title>
<path fill="#bfdbfe" stroke="#1d4ed8" stroke-width="2" d="M1125,-141C1125,-141 978,-141 978,-141 972,-141 966,-135 966,-129 966,-129 966,-117 966,-117 966,-111 972,-105 978,-105 978,-105 1125,-105 1125,-105 1131,-105 1137,-111 1137,-117 1137,-117 1137,-129 1137,-129 1137,-135 1131,-141 1125,-141"/>
<text text-anchor="middle" x="1051.5" y="-126" font-family="DejaVu Sans" font-size="10.00">Forward GroupCast</text>
<text text-anchor="middle" x="1051.5" y="-115" font-family="DejaVu Sans" font-size="10.00">A2AV fallback or native grpcoll</text>
</g>
<!-- pack&#45;&gt;cast -->
<g id="edge10" class="edge">
<title>pack&#45;&gt;cast</title>
<path fill="none" stroke="#64748b" stroke-width="1.4" d="M923.21,-123C934.87,-123 946.89,-123 958.67,-123"/>
<polygon fill="#64748b" stroke="#64748b" stroke-width="1.4" points="958.77,-125.52 965.97,-123 958.77,-120.48 958.77,-125.52"/>
</g>
<!-- recv -->
<g id="node9" class="node">
<title>recv</title>
<path fill="#dcfce7" stroke="#16a34a" d="M1324,-141C1324,-141 1192,-141 1192,-141 1186,-141 1180,-135 1180,-129 1180,-129 1180,-117 1180,-117 1180,-111 1186,-105 1192,-105 1192,-105 1324,-105 1324,-105 1330,-105 1336,-111 1336,-117 1336,-117 1336,-129 1336,-129 1336,-135 1330,-141 1324,-141"/>
<text text-anchor="middle" x="1258" y="-126" font-family="DejaVu Sans" font-size="10.00">Typed unique receive buffer</text>
<text text-anchor="middle" x="1258" y="-115" font-family="DejaVu Sans" font-size="10.00">stable logical row ids</text>
</g>
<!-- cast&#45;&gt;recv -->
<g id="edge11" class="edge">
<title>cast&#45;&gt;recv</title>
<path fill="none" stroke="#64748b" stroke-width="1.4" d="M1137.15,-123C1148.89,-123 1160.95,-123 1172.68,-123"/>
<polygon fill="#64748b" stroke="#64748b" stroke-width="1.4" points="1172.74,-125.52 1179.94,-123 1172.74,-120.48 1172.74,-125.52"/>
</g>
<!-- isolation -->
<g id="node14" class="node">
<title>isolation</title>
<path fill="#f0fdfa" stroke="#0f766e" d="M2063,-262C2063,-262 1880,-262 1880,-262 1874,-262 1868,-256 1868,-250 1868,-250 1868,-218 1868,-218 1868,-212 1874,-206 1880,-206 1880,-206 2063,-206 2063,-206 2069,-206 2075,-212 2075,-218 2075,-218 2075,-250 2075,-250 2075,-256 2069,-262 2063,-262"/>
<text text-anchor="middle" x="1971.5" y="-248" font-family="DejaVu Sans" font-size="10.00">Per&#45;call isolation</text>
<text text-anchor="middle" x="1971.5" y="-237" font-family="DejaVu Sans" font-size="10.00">4 buffer slots + 4 work objects</text>
<text text-anchor="middle" x="1971.5" y="-226" font-family="DejaVu Sans" font-size="10.00">4 native handle dictionaries</text>
<text text-anchor="middle" x="1971.5" y="-215" font-family="DejaVu Sans" font-size="10.00">(no runtime&#45;shared event/work/buffer)</text>
</g>
<!-- cast&#45;&gt;isolation -->
<g id="edge16" class="edge">
<title>cast&#45;&gt;isolation</title>
<path fill="none" stroke="#0f766e" stroke-width="1.4" stroke-dasharray="5,2" d="M1070.05,-141.22C1103.26,-173.65 1179,-238 1257,-238 1257,-238 1257,-238 1728.5,-238 1771.61,-238 1819.03,-237.36 1860.38,-236.59"/>
<polygon fill="#0f766e" stroke="#0f766e" stroke-width="1.4" points="1860.61,-239.1 1867.77,-236.45 1860.52,-234.06 1860.61,-239.1"/>
</g>
<!-- contract -->
<g id="node15" class="node">
<title>contract</title>
<polygon fill="#ecfccb" stroke="#4d7c0f" points="2062,-90 1875,-90 1875,-54 2068,-54 2068,-84 2062,-90"/>
<polyline fill="none" stroke="#4d7c0f" points="2062,-90 2062,-84 "/>
<polyline fill="none" stroke="#4d7c0f" points="2068,-84 2062,-84 "/>
<text text-anchor="middle" x="1971.5" y="-75" font-family="DejaVu Sans" font-size="10.00" fill="#365314">Production DSA transport calls only</text>
<text text-anchor="middle" x="1971.5" y="-64" font-family="DejaVu Sans" font-size="10.00" fill="#365314">group_cast / group_reduce</text>
</g>
<!-- cast&#45;&gt;contract -->
<g id="edge18" class="edge">
<title>cast&#45;&gt;contract</title>
<path fill="none" stroke="#4d7c0f" stroke-width="1.4" stroke-dasharray="1,5" d="M1093.92,-104.99C1134.63,-88.95 1198.91,-68 1257,-68 1257,-68 1257,-68 1728.5,-68 1774.08,-68 1824.48,-68.72 1867.44,-69.55"/>
<polygon fill="#4d7c0f" stroke="#4d7c0f" stroke-width="1.4" points="1867.57,-72.07 1874.82,-69.69 1867.67,-67.03 1867.57,-72.07"/>
</g>
<!-- remote_grad -->
<g id="node10" class="node">
<title>remote_grad</title>
<path fill="#ffedd5" stroke="#ea580c" d="M1575,-141C1575,-141 1430,-141 1430,-141 1424,-141 1418,-135 1418,-129 1418,-129 1418,-117 1418,-117 1418,-111 1424,-105 1430,-105 1430,-105 1575,-105 1575,-105 1581,-105 1587,-111 1587,-117 1587,-117 1587,-129 1587,-129 1587,-135 1581,-141 1575,-141"/>
<text text-anchor="middle" x="1502.5" y="-126" font-family="DejaVu Sans" font-size="10.00">Remote gradient contributions</text>
<text text-anchor="middle" x="1502.5" y="-115" font-family="DejaVu Sans" font-size="10.00">in receive&#45;row order</text>
</g>
<!-- recv&#45;&gt;remote_grad -->
<g id="edge12" class="edge">
<title>recv&#45;&gt;remote_grad</title>
<path fill="none" stroke="#64748b" stroke-width="1.4" d="M1336.06,-123C1359.79,-123 1386.14,-123 1410.7,-123"/>
<polygon fill="#64748b" stroke="#64748b" stroke-width="1.4" points="1410.72,-125.52 1417.92,-123 1410.72,-120.48 1410.72,-125.52"/>
<text text-anchor="middle" x="1377" y="-125.6" font-family="DejaVu Sans" font-size="8.00">backward</text>
</g>
<!-- reduce -->
<g id="node12" class="node">
<title>reduce</title>
<path fill="#fed7aa" stroke="#c2410c" stroke-width="2" d="M1813,-174.5C1813,-174.5 1642,-174.5 1642,-174.5 1636,-174.5 1630,-168.5 1630,-162.5 1630,-162.5 1630,-141.5 1630,-141.5 1630,-135.5 1636,-129.5 1642,-129.5 1642,-129.5 1813,-129.5 1813,-129.5 1819,-129.5 1825,-135.5 1825,-141.5 1825,-141.5 1825,-162.5 1825,-162.5 1825,-168.5 1819,-174.5 1813,-174.5"/>
<text text-anchor="middle" x="1727.5" y="-160.5" font-family="DejaVu Sans" font-size="10.00">Symmetric GroupReduce</text>
<text text-anchor="middle" x="1727.5" y="-149.5" font-family="DejaVu Sans" font-size="10.00">same route + same payload handle</text>
<text text-anchor="middle" x="1727.5" y="-138.5" font-family="DejaVu Sans" font-size="10.00">sum, FP32 communication</text>
</g>
<!-- remote_grad&#45;&gt;reduce -->
<g id="edge13" class="edge">
<title>remote_grad&#45;&gt;reduce</title>
<path fill="none" stroke="#64748b" stroke-width="1.4" d="M1587.17,-133.88C1598.74,-135.39 1610.73,-136.94 1622.6,-138.49"/>
<polygon fill="#64748b" stroke="#64748b" stroke-width="1.4" points="1622.51,-141.02 1629.98,-139.45 1623.16,-136.02 1622.51,-141.02"/>
</g>
<!-- local_grad -->
<g id="node11" class="node">
<title>local_grad</title>
<path fill="#ffedd5" stroke="#ea580c" d="M1561,-201C1561,-201 1444,-201 1444,-201 1438,-201 1432,-195 1432,-189 1432,-189 1432,-177 1432,-177 1432,-171 1438,-165 1444,-165 1444,-165 1561,-165 1561,-165 1567,-165 1573,-171 1573,-177 1573,-177 1573,-189 1573,-189 1573,-195 1567,-201 1561,-201"/>
<text text-anchor="middle" x="1502.5" y="-180.5" font-family="DejaVu Sans" font-size="10.00">Owner&#45;local contribution</text>
</g>
<!-- local_grad&#45;&gt;reduce -->
<g id="edge14" class="edge">
<title>local_grad&#45;&gt;reduce</title>
<path fill="none" stroke="#64748b" stroke-width="1.4" d="M1573.14,-173.32C1588.8,-171.14 1605.74,-168.79 1622.46,-166.46"/>
<polygon fill="#64748b" stroke="#64748b" stroke-width="1.4" points="1622.82,-168.96 1629.6,-165.47 1622.13,-163.97 1622.82,-168.96"/>
</g>
<!-- restore -->
<g id="node13" class="node">
<title>restore</title>
<path fill="#bbf7d0" stroke="#15803d" stroke-width="2" d="M2030,-174.5C2030,-174.5 1913,-174.5 1913,-174.5 1907,-174.5 1901,-168.5 1901,-162.5 1901,-162.5 1901,-141.5 1901,-141.5 1901,-135.5 1907,-129.5 1913,-129.5 1913,-129.5 2030,-129.5 2030,-129.5 2036,-129.5 2042,-135.5 2042,-141.5 2042,-141.5 2042,-162.5 2042,-162.5 2042,-168.5 2036,-174.5 2030,-174.5"/>
<text text-anchor="middle" x="1971.5" y="-160.5" font-family="DejaVu Sans" font-size="10.00">FP32 owner accumulator</text>
<text text-anchor="middle" x="1971.5" y="-149.5" font-family="DejaVu Sans" font-size="10.00">restore local row order</text>
<text text-anchor="middle" x="1971.5" y="-138.5" font-family="DejaVu Sans" font-size="10.00">one final dtype cast</text>
</g>
<!-- reduce&#45;&gt;restore -->
<g id="edge15" class="edge">
<title>reduce&#45;&gt;restore</title>
<path fill="none" stroke="#64748b" stroke-width="1.4" d="M1825.19,-152C1847.9,-152 1871.8,-152 1893.51,-152"/>
<polygon fill="#64748b" stroke="#64748b" stroke-width="1.4" points="1893.59,-154.52 1900.79,-152 1893.59,-149.48 1893.59,-154.52"/>
</g>
<!-- reduce&#45;&gt;isolation -->
<g id="edge17" class="edge">
<title>reduce&#45;&gt;isolation</title>
<path fill="none" stroke="#0f766e" stroke-width="1.4" stroke-dasharray="5,2" d="M1794.95,-174.52C1821.39,-183.48 1852.23,-193.93 1880.62,-203.54"/>
<polygon fill="#0f766e" stroke="#0f766e" stroke-width="1.4" points="1880.15,-206.05 1887.78,-205.97 1881.77,-201.27 1880.15,-206.05"/>
</g>
<!-- reduce&#45;&gt;contract -->
<g id="edge19" class="edge">
<title>reduce&#45;&gt;contract</title>
<path fill="none" stroke="#4d7c0f" stroke-width="1.4" stroke-dasharray="1,5" d="M1796.88,-129.4C1831.98,-117.79 1874.42,-103.76 1908.55,-92.48"/>
<polygon fill="#4d7c0f" stroke="#4d7c0f" stroke-width="1.4" points="1909.66,-94.77 1915.7,-90.11 1908.08,-89.98 1909.66,-94.77"/>
</g>
</g>
</svg>
